<?xml version="1.0" encoding="utf-8"?>
<!-- Generator: Adobe Illustrator 23.0.0, SVG Export Plug-In . SVG Version: 6.00 Build 0)  -->
<svg version="1.1" id="Layer_1" xmlns="http://www.w3.org/2000/svg" xmlns:xlink="http://www.w3.org/1999/xlink" x="0px" y="0px"
	 viewBox="0 0 512 270" enable-background="new 0 0 512 270" xml:space="preserve">
<g>
	<path fill="#F7B924" d="M6,153.2c129.4-79.7,204.6-19.3,347.8-17.5c133.2-4.6,168.3-84.7,122-127c74.5,39,9.5,175.9-180,149.1
		c-82.7-12.3-123.1-29.5-206.4-25.3C62.3,133.9,29.2,145.6,6,153.2z"/>
	<path fill="#00939A" stroke="#00939A" stroke-width="5" stroke-miterlimit="10" d="M114.3,100.8c63.3-49.9,164.3-16.8,229.6-9.1
		c36,4.3,106.8,4.1,125.4-27.2c-0.6,3.9-2.4,7.7-4.5,11.2c-18.2,28.3-64.3,39.9-98.8,41.3C286.5,121.1,200.7,74.5,114.3,100.8z"/>
	
		<text transform="matrix(1 0 0 1 66.2324 256.8531)" fill="#008187" stroke="#008187" stroke-width="5" stroke-miterlimit="10" font-family="'Kefa-Regular'" font-size="188.9437px">vivor</text>
</g>
</svg>
